# xmcd CD database file
#
# Track frame offsets:
#	183
#	14733
#	31035
#	44958
#	58683
#	72783
#	91233
#	107583
#	124183
#	139415
#	149995
#	163765
#
# Disc length: 2458 seconds
#
# Revision: 0
# Processed by: cddbd v1.4PL0 Copyright (c) Steve Scherf et al.
# Submitted via: CDex 1.40Release
#
DISCID=b909980c
DTITLE=B.W. Stevenson - Rainbow Down The Road
DYEAR=1900
DGENRE=Country
TTITLE0=Rainbow Down The Road
TTITLE1=Love Is A Better State Of Mind
TTITLE2=Heart Of The Country
TTITLE3=Lonely Feeling Again
TTITLE4=Touch The Wind
TTITLE5=You Get The Blues Sometimes
TTITLE6=Another Lonely Tear
TTITLE7=Take Away The Rain
TTITLE8=Prettiest Eyes In California
TTITLE9=Dance With Me
TTITLE10=The Lights Of The City
TTITLE11=On My Own
EXTD=ID3G: 2
EXTT0=
EXTT1=
EXTT2=
EXTT3=
EXTT4=
EXTT5=
EXTT6=
EXTT7=
EXTT8=
EXTT9=
EXTT10=
EXTT11=
PLAYORDER=
